<?xml version="1.0" encoding="utf-8"?>
<!-- Generator: Adobe Illustrator 16.0.3, SVG Export Plug-In . SVG Version: 6.00 Build 0)  -->
<!DOCTYPE svg PUBLIC "-//W3C//DTD SVG 1.1//EN" "http://www.w3.org/Graphics/SVG/1.1/DTD/svg11.dtd">
<svg version="1.1" id="Layer_1" xmlns="http://www.w3.org/2000/svg" xmlns:xlink="http://www.w3.org/1999/xlink" x="0px" y="0px"
	 width="54px" height="54px" viewBox="0 0 54 54" enable-background="new 0 0 54 54" xml:space="preserve">
<g>
	<defs>
		<rect id="SVGID_1_" y="0" width="54" height="54"/>
	</defs>
	<clipPath id="SVGID_2_">
		<use xlink:href="#SVGID_1_"  overflow="visible"/>
	</clipPath>
	<path clip-path="url(#SVGID_2_)" fill="#E36F1E" d="M54,27C54,41.913,41.911,54,27.001,54C12.089,54,0,41.913,0,27
		S12.089,0,27.001,0C41.911,0,54,12.088,54,27"/>
	<path clip-path="url(#SVGID_2_)" fill="#E36F1E" d="M3.542,27.09C3.491,14.133,13.955,3.59,26.91,3.542
		c12.956-0.051,23.5,10.411,23.549,23.369c0.052,12.955-10.414,23.5-23.368,23.549C14.135,50.509,3.59,40.047,3.542,27.09"/>
	<circle clip-path="url(#SVGID_2_)" fill="none" stroke="#FFFFFF" stroke-width="1.5" cx="27" cy="27" r="23.459"/>
	<path clip-path="url(#SVGID_2_)" fill="#FFFFFF" d="M26.196,23.282c0-1.191-0.252-1.767-0.974-1.767
		c-0.975,0-1.48,1.081-1.48,2.525c-0.07,2.706-0.036,10.9-0.036,10.9s-2.237-0.037-4.837,0c0,0,0.144-6.894,0.074-17.143
		c0,0,1.623,0.071,3.79-0.037c0,0-0.074,1.444-0.036,2.707c0.757-1.876,2.453-3.284,4.439-3.284c2.487,0,3.679,1.768,3.787,4.945
		c0.071,1.912,0.071,13.93,0.071,13.93c-1.731,0-4.834,0.035-4.834,0.035S26.196,28.985,26.196,23.282"/>
	<path clip-path="url(#SVGID_2_)" fill="#FFFFFF" d="M33.08,32.521c0-1.84,1.082-2.996,2.67-2.996c1.732,0,2.67,1.335,2.67,2.996
		c0,2.166-1.19,3.067-2.707,3.067C33.91,35.588,33.08,34.146,33.08,32.521"/>
</g>
</svg>
